<svg xmlns="http://www.w3.org/2000/svg" width="17" height="17" fill="none" viewBox="0 0 17 17">
  <path fill="#CDCDCD" stroke="#CDCDCD" d="m16.244 15.003-3.66-3.657a6.709 6.709 0 0 0 1.399-4.105A6.748 6.748 0 0 0 7.24.5 6.748 6.748 0 0 0 .5 7.241a6.748 6.748 0 0 0 6.741 6.742 6.716 6.716 0 0 0 4.105-1.398l3.657 3.656a.874.874 0 0 0 1.241 0 .874.874 0 0 0 0-1.238ZM12.23 7.24c0 2.75-2.24 4.989-4.989 4.989A4.996 4.996 0 0 1 2.253 7.24a4.995 4.995 0 0 1 4.988-4.988A4.994 4.994 0 0 1 12.23 7.24Z"/>
</svg>
